<mxfile host="app.diagrams.net" agent="Mozilla/5.0 (X11; Linux x86_64; rv:130.0) Gecko/20100101 Firefox/130.0" version="24.7.14">
  <diagram name="Page-1" id="6DrS6HjhyBhdNSSFzfNM">
    <mxGraphModel dx="1035" dy="700" grid="1" gridSize="10" guides="1" tooltips="1" connect="1" arrows="1" fold="1" page="1" pageScale="1" pageWidth="850" pageHeight="1100" math="0" shadow="0">
      <root>
        <mxCell id="0" />
        <mxCell id="1" parent="0" />
        <mxCell id="vhPGW9TswfJq9DZZwkuE-78" style="edgeStyle=orthogonalEdgeStyle;rounded=0;orthogonalLoop=1;jettySize=auto;html=1;exitX=0.88;exitY=0.25;exitDx=0;exitDy=0;exitPerimeter=0;entryX=0.5;entryY=1;entryDx=0;entryDy=0;" edge="1" parent="1" source="vhPGW9TswfJq9DZZwkuE-25" target="vhPGW9TswfJq9DZZwkuE-42">
          <mxGeometry relative="1" as="geometry" />
        </mxCell>
        <mxCell id="vhPGW9TswfJq9DZZwkuE-80" style="edgeStyle=orthogonalEdgeStyle;rounded=0;orthogonalLoop=1;jettySize=auto;html=1;exitX=0.25;exitY=0.25;exitDx=0;exitDy=0;exitPerimeter=0;entryX=0.5;entryY=1;entryDx=0;entryDy=0;" edge="1" parent="1" source="vhPGW9TswfJq9DZZwkuE-25" target="vhPGW9TswfJq9DZZwkuE-38">
          <mxGeometry relative="1" as="geometry" />
        </mxCell>
        <mxCell id="vhPGW9TswfJq9DZZwkuE-25" value="Satellites" style="ellipse;shape=cloud;whiteSpace=wrap;html=1;fillColor=#dae8fc;strokeColor=#6c8ebf;" vertex="1" parent="1">
          <mxGeometry x="1075" y="550" width="120" height="80" as="geometry" />
        </mxCell>
        <mxCell id="vhPGW9TswfJq9DZZwkuE-57" style="edgeStyle=orthogonalEdgeStyle;rounded=0;orthogonalLoop=1;jettySize=auto;html=1;exitX=0;exitY=0.75;exitDx=0;exitDy=0;entryX=1;entryY=0.5;entryDx=0;entryDy=0;" edge="1" parent="1" source="vhPGW9TswfJq9DZZwkuE-37" target="vhPGW9TswfJq9DZZwkuE-54">
          <mxGeometry relative="1" as="geometry" />
        </mxCell>
        <mxCell id="vhPGW9TswfJq9DZZwkuE-37" value="Scientific model" style="rounded=1;whiteSpace=wrap;html=1;fillColor=#f5f5f5;fontColor=#333333;strokeColor=#666666;" vertex="1" parent="1">
          <mxGeometry x="1075" y="355" width="120" height="60" as="geometry" />
        </mxCell>
        <mxCell id="vhPGW9TswfJq9DZZwkuE-81" style="edgeStyle=orthogonalEdgeStyle;rounded=0;orthogonalLoop=1;jettySize=auto;html=1;exitX=0.5;exitY=0;exitDx=0;exitDy=0;entryX=0.25;entryY=1;entryDx=0;entryDy=0;" edge="1" parent="1" source="vhPGW9TswfJq9DZZwkuE-38" target="vhPGW9TswfJq9DZZwkuE-37">
          <mxGeometry relative="1" as="geometry" />
        </mxCell>
        <mxCell id="vhPGW9TswfJq9DZZwkuE-38" value="NOx Data" style="shape=parallelogram;perimeter=parallelogramPerimeter;whiteSpace=wrap;html=1;fixedSize=1;fillColor=#ffcd28;strokeColor=#d79b00;gradientColor=#ffa500;" vertex="1" parent="1">
          <mxGeometry x="1030" y="480" width="90" height="20" as="geometry" />
        </mxCell>
        <mxCell id="vhPGW9TswfJq9DZZwkuE-79" style="edgeStyle=orthogonalEdgeStyle;rounded=0;orthogonalLoop=1;jettySize=auto;html=1;exitX=0.5;exitY=0;exitDx=0;exitDy=0;entryX=0.75;entryY=1;entryDx=0;entryDy=0;" edge="1" parent="1" source="vhPGW9TswfJq9DZZwkuE-42" target="vhPGW9TswfJq9DZZwkuE-37">
          <mxGeometry relative="1" as="geometry" />
        </mxCell>
        <mxCell id="vhPGW9TswfJq9DZZwkuE-42" value="Wind Data" style="shape=parallelogram;perimeter=parallelogramPerimeter;whiteSpace=wrap;html=1;fixedSize=1;fillColor=#ffcd28;strokeColor=#d79b00;gradientColor=#ffa500;" vertex="1" parent="1">
          <mxGeometry x="1140" y="480" width="100" height="20" as="geometry" />
        </mxCell>
        <mxCell id="vhPGW9TswfJq9DZZwkuE-52" style="edgeStyle=orthogonalEdgeStyle;rounded=0;orthogonalLoop=1;jettySize=auto;html=1;exitX=1;exitY=0.25;exitDx=0;exitDy=0;entryX=0;entryY=0.5;entryDx=0;entryDy=0;" edge="1" parent="1" source="vhPGW9TswfJq9DZZwkuE-49" target="vhPGW9TswfJq9DZZwkuE-51">
          <mxGeometry relative="1" as="geometry" />
        </mxCell>
        <mxCell id="vhPGW9TswfJq9DZZwkuE-65" style="edgeStyle=orthogonalEdgeStyle;rounded=0;orthogonalLoop=1;jettySize=auto;html=1;exitX=0;exitY=0.75;exitDx=0;exitDy=0;" edge="1" parent="1" source="vhPGW9TswfJq9DZZwkuE-49" target="vhPGW9TswfJq9DZZwkuE-63">
          <mxGeometry relative="1" as="geometry" />
        </mxCell>
        <mxCell id="vhPGW9TswfJq9DZZwkuE-49" value="Backend" style="shape=hexagon;perimeter=hexagonPerimeter2;whiteSpace=wrap;html=1;fixedSize=1;fillColor=#e1d5e7;strokeColor=#9673a6;" vertex="1" parent="1">
          <mxGeometry x="755" y="345" width="120" height="80" as="geometry" />
        </mxCell>
        <mxCell id="vhPGW9TswfJq9DZZwkuE-53" style="edgeStyle=orthogonalEdgeStyle;rounded=0;orthogonalLoop=1;jettySize=auto;html=1;exitX=1;exitY=0.5;exitDx=0;exitDy=0;entryX=0;entryY=0.25;entryDx=0;entryDy=0;" edge="1" parent="1" source="vhPGW9TswfJq9DZZwkuE-51" target="vhPGW9TswfJq9DZZwkuE-37">
          <mxGeometry relative="1" as="geometry" />
        </mxCell>
        <mxCell id="vhPGW9TswfJq9DZZwkuE-51" value="Coordinates and additional data" style="shape=parallelogram;perimeter=parallelogramPerimeter;whiteSpace=wrap;html=1;fixedSize=1;fillColor=#d5e8d4;strokeColor=#82b366;gradientColor=#97d077;" vertex="1" parent="1">
          <mxGeometry x="910" y="335" width="130" height="40" as="geometry" />
        </mxCell>
        <mxCell id="vhPGW9TswfJq9DZZwkuE-58" style="edgeStyle=orthogonalEdgeStyle;rounded=0;orthogonalLoop=1;jettySize=auto;html=1;exitX=0;exitY=0.5;exitDx=0;exitDy=0;entryX=1;entryY=0.75;entryDx=0;entryDy=0;" edge="1" parent="1" source="vhPGW9TswfJq9DZZwkuE-54" target="vhPGW9TswfJq9DZZwkuE-49">
          <mxGeometry relative="1" as="geometry" />
        </mxCell>
        <mxCell id="vhPGW9TswfJq9DZZwkuE-54" value="Emission data" style="shape=parallelogram;perimeter=parallelogramPerimeter;whiteSpace=wrap;html=1;fixedSize=1;fillColor=#d5e8d4;strokeColor=#82b366;gradientColor=#97d077;" vertex="1" parent="1">
          <mxGeometry x="915" y="405" width="110" height="20" as="geometry" />
        </mxCell>
        <mxCell id="vhPGW9TswfJq9DZZwkuE-61" style="edgeStyle=orthogonalEdgeStyle;rounded=0;orthogonalLoop=1;jettySize=auto;html=1;exitX=1;exitY=0;exitDx=0;exitDy=0;entryX=0;entryY=0.5;entryDx=0;entryDy=0;" edge="1" parent="1" source="vhPGW9TswfJq9DZZwkuE-59" target="vhPGW9TswfJq9DZZwkuE-60">
          <mxGeometry relative="1" as="geometry" />
        </mxCell>
        <mxCell id="vhPGW9TswfJq9DZZwkuE-85" style="edgeStyle=orthogonalEdgeStyle;rounded=0;orthogonalLoop=1;jettySize=auto;html=1;exitX=0;exitY=0.5;exitDx=0;exitDy=0;" edge="1" parent="1" source="vhPGW9TswfJq9DZZwkuE-59" target="vhPGW9TswfJq9DZZwkuE-72">
          <mxGeometry relative="1" as="geometry" />
        </mxCell>
        <mxCell id="vhPGW9TswfJq9DZZwkuE-59" value="Frontend" style="ellipse;whiteSpace=wrap;html=1;fillColor=#d5e8d4;strokeColor=#82b366;" vertex="1" parent="1">
          <mxGeometry x="425" y="350" width="120" height="80" as="geometry" />
        </mxCell>
        <mxCell id="vhPGW9TswfJq9DZZwkuE-62" style="edgeStyle=orthogonalEdgeStyle;rounded=0;orthogonalLoop=1;jettySize=auto;html=1;exitX=1;exitY=0.5;exitDx=0;exitDy=0;entryX=0;entryY=0.25;entryDx=0;entryDy=0;" edge="1" parent="1" source="vhPGW9TswfJq9DZZwkuE-60" target="vhPGW9TswfJq9DZZwkuE-49">
          <mxGeometry relative="1" as="geometry" />
        </mxCell>
        <mxCell id="vhPGW9TswfJq9DZZwkuE-60" value="Polygon coordinates" style="shape=parallelogram;perimeter=parallelogramPerimeter;whiteSpace=wrap;html=1;fixedSize=1;fillColor=#fff2cc;strokeColor=#d6b656;gradientColor=#ffd966;" vertex="1" parent="1">
          <mxGeometry x="595" y="342.5" width="140" height="25" as="geometry" />
        </mxCell>
        <mxCell id="vhPGW9TswfJq9DZZwkuE-67" style="edgeStyle=orthogonalEdgeStyle;rounded=0;orthogonalLoop=1;jettySize=auto;html=1;exitX=0;exitY=0.5;exitDx=0;exitDy=0;entryX=1;entryY=1;entryDx=0;entryDy=0;" edge="1" parent="1" source="vhPGW9TswfJq9DZZwkuE-63" target="vhPGW9TswfJq9DZZwkuE-59">
          <mxGeometry relative="1" as="geometry" />
        </mxCell>
        <mxCell id="vhPGW9TswfJq9DZZwkuE-63" value="Images, graphs and analysis timeline" style="shape=parallelogram;perimeter=parallelogramPerimeter;whiteSpace=wrap;html=1;fixedSize=1;fillColor=#fff2cc;strokeColor=#d6b656;gradientColor=#ffd966;" vertex="1" parent="1">
          <mxGeometry x="575" y="405" width="150" height="30" as="geometry" />
        </mxCell>
        <mxCell id="vhPGW9TswfJq9DZZwkuE-83" style="edgeStyle=orthogonalEdgeStyle;rounded=0;orthogonalLoop=1;jettySize=auto;html=1;exitX=0.5;exitY=0;exitDx=0;exitDy=0;exitPerimeter=0;entryX=0.5;entryY=1;entryDx=0;entryDy=0;" edge="1" parent="1" source="vhPGW9TswfJq9DZZwkuE-68" target="vhPGW9TswfJq9DZZwkuE-69">
          <mxGeometry relative="1" as="geometry" />
        </mxCell>
        <mxCell id="vhPGW9TswfJq9DZZwkuE-68" value="&lt;div&gt;Government&lt;/div&gt;&lt;div&gt;Consultant&lt;/div&gt;&lt;div&gt;Plant&lt;/div&gt;" style="shape=umlActor;verticalLabelPosition=bottom;verticalAlign=top;html=1;outlineConnect=0;" vertex="1" parent="1">
          <mxGeometry x="465" y="570" width="30" height="60" as="geometry" />
        </mxCell>
        <mxCell id="vhPGW9TswfJq9DZZwkuE-84" style="edgeStyle=orthogonalEdgeStyle;rounded=0;orthogonalLoop=1;jettySize=auto;html=1;exitX=0.5;exitY=0;exitDx=0;exitDy=0;entryX=0.5;entryY=1;entryDx=0;entryDy=0;" edge="1" parent="1" source="vhPGW9TswfJq9DZZwkuE-69" target="vhPGW9TswfJq9DZZwkuE-59">
          <mxGeometry relative="1" as="geometry" />
        </mxCell>
        <mxCell id="vhPGW9TswfJq9DZZwkuE-69" value="&lt;div&gt;Geographic area&lt;/div&gt;&lt;div&gt;or&lt;/div&gt;&lt;div&gt;plant postion&lt;br&gt;&lt;/div&gt;" style="shape=parallelogram;perimeter=parallelogramPerimeter;whiteSpace=wrap;html=1;fixedSize=1;fillColor=#e6d0de;strokeColor=#996185;gradientColor=#d5739d;" vertex="1" parent="1">
          <mxGeometry x="490" y="480" width="130" height="50" as="geometry" />
        </mxCell>
        <mxCell id="vhPGW9TswfJq9DZZwkuE-72" value="Compliance information" style="shape=parallelogram;perimeter=parallelogramPerimeter;whiteSpace=wrap;html=1;fixedSize=1;fillColor=#e6d0de;strokeColor=#996185;gradientColor=#d5739d;" vertex="1" parent="1">
          <mxGeometry x="310" y="480" width="110" height="40" as="geometry" />
        </mxCell>
        <mxCell id="vhPGW9TswfJq9DZZwkuE-86" style="edgeStyle=orthogonalEdgeStyle;rounded=0;orthogonalLoop=1;jettySize=auto;html=1;exitX=0.5;exitY=1;exitDx=0;exitDy=0;entryX=0;entryY=0.3333333333333333;entryDx=0;entryDy=0;entryPerimeter=0;" edge="1" parent="1" source="vhPGW9TswfJq9DZZwkuE-72" target="vhPGW9TswfJq9DZZwkuE-68">
          <mxGeometry relative="1" as="geometry" />
        </mxCell>
        <mxCell id="vhPGW9TswfJq9DZZwkuE-87" value="Developer" style="shape=umlActor;verticalLabelPosition=bottom;verticalAlign=top;html=1;outlineConnect=0;" vertex="1" parent="1">
          <mxGeometry x="800" y="590" width="30" height="60" as="geometry" />
        </mxCell>
        <mxCell id="vhPGW9TswfJq9DZZwkuE-99" value="" style="endArrow=classic;startArrow=classic;html=1;rounded=0;entryX=0.5;entryY=1;entryDx=0;entryDy=0;" edge="1" parent="1" target="vhPGW9TswfJq9DZZwkuE-49">
          <mxGeometry width="50" height="50" relative="1" as="geometry">
            <mxPoint x="815" y="580" as="sourcePoint" />
            <mxPoint x="815" y="430" as="targetPoint" />
          </mxGeometry>
        </mxCell>
        <mxCell id="vhPGW9TswfJq9DZZwkuE-88" value="Rest API" style="shape=trapezoid;perimeter=trapezoidPerimeter;whiteSpace=wrap;html=1;fixedSize=1;fillColor=#ffcccc;strokeColor=#36393d;" vertex="1" parent="1">
          <mxGeometry x="760" y="490" width="115" height="30" as="geometry" />
        </mxCell>
      </root>
    </mxGraphModel>
  </diagram>
</mxfile>
